<svg width="172" height="182" viewBox="0 0 195 228" fill="none" xmlns="http://www.w3.org/2000/svg">
<path d="M123.692 176.557C123.692 176.557 126.861 184.181 126.799 191.449L153.413 200.146C153.413 200.146 153.435 195.143 149.217 190.658C144.999 186.173 142.585 182.506 141.804 177.067L123.692 176.557Z" fill="#E75094"/>
<path d="M139.632 186.059L144.393 185.966" stroke="#FAF8F8" stroke-width="1.34399" stroke-miterlimit="10" stroke-linecap="round"/>
<path d="M154.289 160.43C154.289 160.43 162.495 168.326 167.633 168.175L180.067 147.723C180.067 147.723 176.64 144.178 170.315 148.657C170.315 148.657 168.814 149.993 165.85 149.637C164.445 149.47 162.832 148.789 160.973 147.263L154.289 160.43Z" fill="#E75094"/>
<path d="M167.373 154.789L167.545 150.319" stroke="#FAF8F8" stroke-width="1.34399" stroke-miterlimit="10" stroke-linecap="round"/>
<path d="M160.389 115.423L139.64 112.783C138.214 112.602 136.945 113.5 136.804 114.79L134.758 133.565C134.618 134.855 135.659 136.048 137.085 136.229L157.834 138.869C159.259 139.05 160.528 138.152 160.669 136.862L162.715 118.087C162.856 116.797 161.814 115.605 160.389 115.423Z" stroke="#B3C2FF" stroke-width="1.34399" stroke-miterlimit="10"/>
<path d="M132.9 97.6802L118 104.518C117.88 104.572 117.748 104.6 117.614 104.599C117.479 104.598 117.345 104.569 117.222 104.513C117.098 104.457 116.988 104.376 116.899 104.275C116.809 104.175 116.744 104.058 116.706 103.932L115.603 92.9415C115.564 92.5577 115.648 92.1766 115.842 91.8486C116.037 91.5207 116.333 91.2615 116.692 91.1055L131.936 84.4656C132.051 84.4107 132.181 84.3855 132.311 84.3925C132.442 84.3995 132.571 84.4384 132.684 84.5054C132.798 84.5725 132.893 84.6656 132.961 84.776C133.028 84.8863 133.066 85.0102 133.071 85.136L133.508 96.7064C133.516 96.9114 133.463 97.1118 133.356 97.2842C133.248 97.4567 133.09 97.594 132.9 97.6802Z" fill="#BEDDFA"/>
<path d="M127.64 71.5358C131.238 70.5086 133.165 66.8395 131.945 63.3404C130.725 59.8414 126.82 57.8375 123.222 58.8647C119.624 59.8918 117.697 63.561 118.917 67.06C120.137 70.559 124.042 72.5629 127.64 71.5358Z" fill="#E75094"/>
<path d="M127.776 65.7103L124.646 68.1381C124.582 68.1889 124.504 68.2212 124.421 68.2317C124.338 68.2421 124.252 68.2302 124.174 68.1972C124.095 68.1643 124.027 68.1116 123.976 68.0449C123.925 67.9782 123.893 67.9001 123.885 67.8191L123.371 63.4289C123.359 63.3478 123.371 63.2661 123.404 63.1928C123.438 63.1195 123.493 63.0574 123.562 63.0134C123.632 62.9694 123.713 62.9453 123.798 62.9436C123.883 62.942 123.967 62.9629 124.042 63.004L127.687 64.9685C127.757 65.0038 127.816 65.055 127.861 65.1172C127.905 65.1794 127.933 65.2507 127.942 65.3245C127.951 65.3984 127.94 65.4724 127.911 65.5398C127.882 65.6072 127.836 65.6658 127.776 65.7103Z" fill="#FAF8F8"/>
<path d="M44.9412 77.3659C41.5744 84.001 39.2314 91.0609 37.9766 98.3515C37.3858 101.636 37.0751 104.968 37.0475 108.317C37.016 111.505 37.4288 114.701 38.2761 117.828C39.1135 120.802 40.4534 123.732 42.4399 126.264C44.274 128.604 46.6034 130.593 49.2816 132.105C51.9027 133.611 54.8657 134.515 57.905 134.736C59.3902 134.829 60.8731 134.721 62.3056 134.416C62.9098 134.288 63.5087 134.148 64.118 134.032C65.5423 133.782 66.9487 133.465 68.332 133.083C70.0596 132.607 71.6931 131.904 73.1826 130.995C74.8581 129.955 76.2474 128.583 77.2523 126.974C78.5206 124.916 79.0993 122.538 79.2316 120.159C79.3705 117.729 79.177 114.868 76.83 113.208C74.6282 111.656 71.555 111.633 69.1788 112.589C65.9605 113.889 63.996 116.655 62.8788 119.612C61.9001 122.096 61.4849 124.754 61.6577 127.43C61.8311 129.827 62.4675 132.447 64.2023 134.391C65.1779 135.49 66.5583 136.234 67.8826 136.926C69.9613 138.005 72.1575 138.872 74.4293 139.508C77.6577 140.417 81.0092 140.824 84.3407 140.713C86.2493 140.638 88.1383 140.398 89.9819 139.994C90.3129 139.923 89.7901 139.532 89.7901 139.532C86.2491 140.304 82.5511 140.445 78.8947 139.948C74.4795 139.326 70.2285 137.828 66.4445 135.561C65.7552 135.161 65.1349 134.667 64.6062 134.097C63.8193 133.165 63.2322 132.109 62.8776 130.989C62.072 128.618 61.9637 126.042 62.3231 123.635C62.537 122.266 62.9037 120.926 63.4176 119.636C63.99 118.083 64.8575 116.642 65.9815 115.379C67.9282 113.279 71.002 111.923 74.1291 112.575C75.171 112.774 76.1424 113.235 76.9323 113.905C77.8435 114.71 78.3454 115.812 78.5757 116.921C78.8527 118.314 78.7832 119.771 78.62 121.156C78.4924 122.337 78.222 123.496 77.8136 124.612C77.14 126.445 75.9985 128.09 74.4806 129.415C73.1601 130.525 71.6274 131.408 69.9515 132.023C68.5002 132.555 66.9964 132.971 65.4567 133.266C64.8435 133.391 64.228 133.501 63.616 133.619C62.8991 133.757 62.1947 133.948 61.4738 134.067C58.6043 134.509 55.6235 134.208 52.865 133.197C50.0351 132.168 47.4556 130.604 45.301 128.612C43.0497 126.52 41.2784 124.042 40.0987 121.336C38.8319 118.429 38.047 115.383 37.7707 112.3C37.4861 109.179 37.5203 106.053 37.873 102.962C38.2494 99.4499 38.8814 95.9743 39.7649 92.5578C40.6643 89.0701 41.8203 85.6506 43.225 82.3222C43.9018 80.7199 44.6356 79.141 45.4264 77.5857C45.4488 77.529 45.4466 77.4659 45.4205 77.4087C45.3943 77.3515 45.346 77.3045 45.2851 77.2769C45.2241 77.2493 45.155 77.2431 45.0914 77.2596C45.0277 77.2761 44.9742 77.314 44.9412 77.3659Z" fill="#B3C2FF"/>
<path d="M97.0053 62.1157L101.247 59.0129" stroke="#B3C2FF" stroke-width="1.34399" stroke-miterlimit="10" stroke-linecap="round"/>
<path d="M97.1756 64.2375L102.514 63.3397" stroke="#B3C2FF" stroke-width="1.34399" stroke-miterlimit="10" stroke-linecap="round"/>
<path d="M161.8 147.194C147.147 133.586 131.751 126.011 124.031 122.219C122.842 121.635 121.382 120.916 120.866 120.623C117.144 118.736 115.1 113.797 115.1 113.797L102.766 121.888C102.76 121.874 102.755 121.86 102.751 121.845C102.757 121.862 102.762 121.875 102.755 121.891L102.658 121.953L82.5785 122.513C82.6991 124.223 84.2714 139.426 97.8343 147.512C100.736 149.243 106.292 154.188 112.163 161.334C117.998 168.428 121.389 173.022 123.263 178.373L146.704 179.082C143.106 168.815 132.103 154.916 127.814 149.693C125.074 146.343 122.149 143.134 119.052 140.082C127.565 144.393 141.008 152.071 152.792 165.699C152.798 165.688 163.081 148.385 161.8 147.194Z" fill="#300E87"/>
<path d="M122.272 173.41L139.915 174.132" stroke="#D7D3D3" stroke-width="1.34399" stroke-miterlimit="10" stroke-linecap="round"/>
<path d="M159.117 143.815C159.117 143.815 156.074 152.804 152.829 157.551" stroke="#D7D3D3" stroke-width="1.34399" stroke-miterlimit="10" stroke-linecap="round"/>
<path d="M118.268 139.569C118.268 139.569 113.631 135.136 110.892 133.314L111.703 130.024" stroke="#D7D3D3" stroke-width="1.34399" stroke-miterlimit="10" stroke-linecap="round"/>
<path d="M67.3461 55.7404L45.8562 65.7155C44.8735 66.1713 43.7272 66.2802 42.6304 66.022C41.5336 65.7638 40.561 65.156 39.8934 64.3117L29.1046 50.6435C28.7494 50.1957 28.5011 49.6877 28.3764 49.1539C28.2518 48.62 28.2537 48.0729 28.382 47.5493C28.5103 47.0257 28.7621 46.5378 29.1203 46.1188C29.4785 45.6997 29.9348 45.3592 30.4584 45.1201L58.6278 32.2076C59.1193 31.9829 59.663 31.8599 60.2214 31.8469C60.7798 31.834 61.3397 31.9315 61.8624 32.1327C62.3851 32.3338 62.8582 32.6339 63.249 33.0122C63.6399 33.3905 63.9392 33.838 64.1264 34.3238L69.9924 49.4879C70.4513 50.6768 70.4372 51.9579 69.9526 53.1029C69.468 54.2479 68.5443 55.1825 67.3461 55.7404Z" fill="#BEDDFA"/>
<path d="M44.7457 61.3812L43.5757 63.7606C43.5419 63.8314 43.4869 63.8917 43.4168 63.9348C43.3466 63.9779 43.264 64.0021 43.1779 64.0049C43.0917 64.0077 43.0054 63.9889 42.9284 63.9506C42.8513 63.9123 42.7865 63.8559 42.7409 63.7876L40.7971 61.3146C40.759 61.2662 40.7355 61.2099 40.7292 61.1517C40.723 61.0934 40.7341 61.0354 40.7615 60.9836C40.7888 60.9319 40.8314 60.8885 40.8846 60.8579C40.9379 60.8273 40.9999 60.8107 41.064 60.8099L44.3211 60.7608C44.3995 60.7645 44.4764 60.7859 44.545 60.8231C44.6135 60.8602 44.6715 60.9119 44.7136 60.9735C44.7558 61.0351 44.7808 61.1046 44.7864 61.1758C44.792 61.247 44.778 61.3176 44.7457 61.3812Z" fill="#FAF8F8"/>
<path d="M56.3777 55.7003L54.1567 56.7376L46.8863 60.1318C46.8324 60.157 46.7731 60.1722 46.7118 60.1764C46.6505 60.1806 46.5883 60.1738 46.5289 60.1565C46.4695 60.1391 46.414 60.1114 46.3655 60.0751C46.3171 60.0388 46.2766 59.9945 46.2465 59.9447C46.1864 59.8445 46.1716 59.7285 46.2056 59.622C46.2395 59.5155 46.3193 59.4272 46.4275 59.3764L53.7214 55.9681L55.994 54.9071C56.2106 55.1313 56.3451 55.4092 56.3777 55.7003V55.7003Z" fill="#FAF8F8"/>
<path d="M56.4062 55.71C56.4184 56.0482 56.2844 56.3718 56.0328 56.6111C55.7812 56.8505 55.4323 56.9865 55.0609 56.99C54.7249 56.9778 54.4023 56.8454 54.1633 56.6218C53.9291 56.4095 53.7765 56.135 53.7298 55.8418C53.6946 55.6584 53.7016 55.4719 53.7502 55.2941C53.7989 55.1164 53.8882 54.9514 54.0125 54.8097C54.1368 54.6679 54.2933 54.5525 54.472 54.4709C54.6507 54.3892 54.8477 54.343 55.0505 54.3353C55.233 54.3428 55.4134 54.3849 55.5799 54.4591C55.7464 54.5333 55.8953 54.6379 56.017 54.7661C56.2333 54.9939 56.367 55.2755 56.3985 55.5701C56.4034 55.6154 56.406 55.6627 56.4062 55.71Z" fill="#FAF8F8"/>
<path d="M66.7579 50.5186L56.4086 55.3525C56.3773 55.062 56.2445 54.7842 56.0296 54.5596L66.2991 49.7633C66.3531 49.7341 66.4135 49.7154 66.4767 49.7084C66.5399 49.7014 66.6046 49.7062 66.6667 49.7226C66.7289 49.7389 66.7872 49.7664 66.8381 49.8033C66.889 49.8403 66.9315 49.886 66.9628 49.9376C66.9941 49.9891 67.0137 50.0455 67.0203 50.1032C67.0269 50.1609 67.0204 50.2188 67.0012 50.2732C66.982 50.3276 66.9505 50.3775 66.9087 50.4197C66.8669 50.4619 66.8155 50.4955 66.7579 50.5186V50.5186Z" fill="#CBE6FF"/>
<path d="M94.2836 81.8511C94.2836 81.8511 97.6281 82.7966 111.213 96.3175C113.825 98.9159 116.975 100.728 125.666 99.6643L120.85 110.753C120.85 110.753 107.044 110.78 103.914 105.184C100.784 99.5891 94.2836 81.8511 94.2836 81.8511Z" fill="#475AEA"/>
<path d="M105.636 95.7083C102.603 89.2831 97.6079 83.5115 92.3547 81.599C88.8802 80.3347 86.0456 80.7409 82.3386 81.7994C73.2202 84.4031 68.4502 96.6346 69.9815 108.011C70.0871 110.1 70.6332 112.165 71.5866 114.079C73.7803 118.942 77.9787 121.974 82.7744 123.358C95.5702 127.687 111.639 118.309 111.639 118.309C110.778 108.065 108.056 100.558 105.636 95.7083Z" fill="#475AEA"/>
<path d="M96.5344 86.5135C96.5344 86.5135 105.018 93.7193 107.5 112.987" stroke="#D7D3D3" stroke-width="1.34399" stroke-miterlimit="10" stroke-linecap="round"/>
<path d="M128.645 93.9892C128.797 93.9554 128.958 93.9568 129.113 93.9934C129.268 94.03 129.414 94.1006 129.538 94.1998C129.663 94.2989 129.763 94.4238 129.831 94.5643C129.899 94.7049 129.932 94.8572 129.928 95.0092L130.223 111.396C130.234 111.685 130.163 111.968 130.017 112.214C129.872 112.461 129.657 112.66 129.396 112.792L109.465 122.504C109.392 122.539 109.315 122.567 109.235 122.588C109.081 122.623 108.919 122.628 108.76 122.601C108.601 122.574 108.447 122.516 108.309 122.431C108.171 122.345 108.051 122.235 107.957 122.105C107.863 121.976 107.797 121.831 107.762 121.678L106.579 106.101C106.534 105.563 106.651 105.03 106.916 104.568C107.181 104.106 107.583 103.734 108.073 103.497L128.442 94.0752C128.505 94.0387 128.574 94.0098 128.645 93.9892V93.9892Z" fill="#FFD550"/>
<path d="M128.006 93.7896C127.863 93.7601 127.717 93.7631 127.578 93.7983C127.504 93.8162 127.432 93.8428 127.365 93.8775L106.997 103.299C106.507 103.536 106.105 103.908 105.84 104.37C105.575 104.832 105.458 105.364 105.504 105.903L106.689 121.479C106.742 121.702 106.862 121.909 107.033 122.073C107.205 122.236 107.42 122.35 107.653 122.399L108.715 122.61C108.483 122.561 108.267 122.447 108.095 122.284C107.924 122.12 107.804 121.913 107.751 121.689L106.568 106.113C106.523 105.574 106.64 105.042 106.905 104.58C107.17 104.118 107.571 103.746 108.062 103.509L128.43 94.0875C128.622 93.9886 128.846 93.9573 129.065 93.9986L128.006 93.7896Z" fill="#FFB444"/>
<path d="M93.2214 113.889C93.2214 113.889 96.7939 109.947 99.678 107.901C102.562 105.856 105.374 104.414 106.119 104.619C106.666 104.767 107.609 106.414 105.613 109.428C105.613 109.428 108.432 109.583 110.804 108.893C113.054 108.234 114.877 107.714 116.055 109.517C116.246 109.811 116.308 110.351 116.254 111.048C116.116 112.298 115.816 113.519 115.36 114.683C114.989 115.674 114.541 116.634 114.019 117.555C112.484 120.25 110.241 122.629 107.508 122.886C103.808 123.228 100.062 123.189 96.3326 122.77C96.3326 122.77 90.7597 122.792 93.2214 113.889Z" fill="#FC9FC9"/>
<path d="M113.009 112.519C112.398 112.699 111.775 112.839 111.142 112.939C111.112 112.943 111.08 112.942 111.05 112.935C111.019 112.927 110.99 112.914 110.965 112.896C110.913 112.86 110.877 112.805 110.864 112.744C110.852 112.683 110.865 112.622 110.9 112.572C110.935 112.523 110.989 112.49 111.05 112.481C111.077 112.473 113.83 112.069 115.721 110.83C115.746 110.814 115.775 110.803 115.805 110.798C115.835 110.792 115.866 110.793 115.896 110.799C115.926 110.805 115.955 110.818 115.981 110.835C116.008 110.852 116.03 110.874 116.048 110.899C116.066 110.925 116.079 110.953 116.085 110.983C116.092 111.012 116.093 111.043 116.088 111.072C116.083 111.102 116.072 111.13 116.056 111.155C116.039 111.179 116.018 111.201 115.993 111.217C115.072 111.789 114.067 112.227 113.009 112.519V112.519Z" fill="#E75094"/>
<path d="M113.584 115.293C113.026 115.455 112.304 115.638 111.387 115.827C111.357 115.833 111.326 115.833 111.295 115.827C111.265 115.822 111.235 115.81 111.209 115.794C111.182 115.777 111.159 115.755 111.141 115.73C111.122 115.705 111.109 115.677 111.101 115.647C111.086 115.587 111.096 115.525 111.128 115.474C111.16 115.424 111.211 115.388 111.271 115.376C113.918 114.832 114.913 114.319 114.924 114.316C114.978 114.288 115.042 114.283 115.102 114.302C115.162 114.32 115.213 114.361 115.244 114.415C115.274 114.469 115.283 114.532 115.267 114.59C115.251 114.647 115.213 114.696 115.159 114.724C114.655 114.96 114.127 115.151 113.584 115.293V115.293Z" fill="#E75094"/>
<path d="M110.864 118.393L110.282 118.561C110.223 118.578 110.159 118.571 110.103 118.542C110.047 118.513 110.005 118.463 109.985 118.405C109.965 118.347 109.969 118.284 109.996 118.231C110.023 118.178 110.071 118.138 110.13 118.121C112.58 117.461 113.294 116.998 113.3 116.994C113.35 116.96 113.412 116.948 113.474 116.96C113.535 116.972 113.59 117.007 113.627 117.058C113.664 117.109 113.679 117.171 113.67 117.23C113.661 117.29 113.627 117.342 113.577 117.376C113.548 117.389 112.926 117.796 110.864 118.393Z" fill="#E75094"/>
<path d="M109.536 120.998C109.165 121.105 108.736 121.209 108.241 121.311C108.211 121.317 108.18 121.318 108.15 121.312C108.119 121.307 108.09 121.295 108.063 121.279C108.01 121.246 107.971 121.194 107.955 121.134C107.939 121.075 107.948 121.013 107.98 120.962C108.011 120.911 108.063 120.875 108.123 120.863C110.702 120.336 111.352 119.69 111.36 119.673C111.401 119.629 111.459 119.604 111.521 119.603C111.582 119.602 111.643 119.625 111.689 119.667C111.736 119.708 111.764 119.765 111.769 119.825C111.774 119.885 111.754 119.944 111.715 119.988C111.69 120.014 111.228 120.509 109.536 120.998Z" fill="#E75094"/>
<path d="M73.1355 89.5717C73.1355 89.5717 65.4781 99.7192 68.1067 116.962C68.1067 116.962 68.8391 121.607 72.3116 123.041C75.7842 124.476 86.479 126.465 98.1485 123.418C98.1485 123.418 91.9829 122.268 93.0345 114.453C93.0345 114.453 85.1452 113.969 82.3286 111.878C79.512 109.787 82.4799 100.49 82.4799 100.49C82.4799 100.49 82.0582 76.333 73.1355 89.5717Z" fill="#475AEA"/>
<path d="M80.4753 100.203C80.4753 100.203 79.8594 110.468 83.367 112.226C84.6492 112.871 86.9398 113.871 92.5707 114.267" stroke="#D7D3D3" stroke-width="1.34399" stroke-miterlimit="10" stroke-linecap="round"/>
<path d="M119.816 106.061C120.853 105.6 122.03 106.226 122.434 107.461C122.838 108.695 122.316 110.077 121.272 110.541C120.228 111.004 119.057 110.374 118.655 109.137C118.252 107.9 118.775 106.524 119.816 106.061Z" fill="#FAF8F8"/>
<path d="M130.146 95.4825C130.146 95.4825 139.509 100.214 132.409 110.615C132.409 110.615 128.672 114.398 125.304 112.003C125.304 112.003 122.921 109.214 124.947 105.37C125.236 104.629 125.73 103.986 126.377 103.508C127.38 102.837 129.67 100.706 130.034 99.4985C130.399 98.2914 130.146 95.4825 130.146 95.4825Z" fill="#FC9FC9"/>
<path d="M126.403 106.831C126.016 106.963 125.59 106.973 125.185 106.859C124.994 106.798 124.818 106.696 124.67 106.56C124.523 106.423 124.408 106.258 124.335 106.075C124.315 106.017 124.319 105.955 124.347 105.903C124.374 105.85 124.422 105.811 124.481 105.794C124.539 105.777 124.603 105.784 124.659 105.813C124.714 105.842 124.757 105.891 124.777 105.948C124.825 106.063 124.9 106.166 124.995 106.25C125.09 106.334 125.202 106.396 125.323 106.432C125.759 106.57 126.597 106.502 128.093 105.399C129.712 104.192 129.952 103.815 129.972 103.776C129.993 103.724 130.033 103.683 130.085 103.661C130.137 103.638 130.196 103.635 130.252 103.653C130.311 103.671 130.362 103.712 130.392 103.765C130.423 103.819 130.431 103.881 130.414 103.938C130.381 104.06 130.116 104.478 128.38 105.764C127.794 106.229 127.125 106.59 126.403 106.831V106.831Z" fill="#E75094"/>
<path d="M126.446 109.177C124.68 109.684 123.771 108.463 123.766 108.448C123.73 108.397 123.715 108.336 123.724 108.277C123.734 108.218 123.767 108.167 123.817 108.134C123.867 108.101 123.93 108.089 123.991 108.101C124.052 108.113 124.107 108.148 124.143 108.198C124.185 108.256 125.163 109.528 127.194 108.347C128.791 107.411 129.179 107.074 129.179 107.074C129.223 107.036 129.281 107.016 129.342 107.019C129.403 107.023 129.461 107.049 129.504 107.092C129.547 107.135 129.572 107.192 129.573 107.251C129.574 107.31 129.552 107.366 129.511 107.408C129.493 107.413 129.116 107.76 127.451 108.738C127.138 108.925 126.8 109.072 126.446 109.177V109.177Z" fill="#E75094"/>
<path d="M127.259 111.437C126.788 111.579 126.288 111.626 125.789 111.575C125.29 111.525 124.802 111.378 124.353 111.143C124.327 111.127 124.304 111.106 124.285 111.082C124.267 111.057 124.253 111.029 124.246 111C124.238 110.971 124.237 110.941 124.241 110.912C124.245 110.883 124.255 110.855 124.271 110.83C124.302 110.78 124.353 110.746 124.413 110.734C124.472 110.722 124.535 110.733 124.588 110.765C124.667 110.812 126.509 111.888 128.6 110.199C128.646 110.161 128.707 110.143 128.769 110.15C128.831 110.156 128.889 110.186 128.93 110.233C128.971 110.28 128.992 110.34 128.988 110.4C128.984 110.46 128.956 110.514 128.91 110.552C128.43 110.953 127.869 111.254 127.259 111.437Z" fill="#E75094"/>
<path d="M88.6587 68.9102C88.3893 71.606 89.4221 73.9641 90.9663 74.1751C92.5105 74.3861 94.3936 72.1613 94.6173 69.4576C94.8732 66.3555 93.4821 64.6213 91.9379 64.4103C90.3937 64.1992 88.9209 66.2142 88.6587 68.9102Z" fill="#FFB444"/>
<path d="M94.7617 69.4408C95.0073 67.1474 94.0705 65.1425 92.6692 64.9628C91.2678 64.7831 89.9327 66.4966 89.687 68.7901C89.4413 71.0836 90.3782 73.0885 91.7795 73.2681C93.1808 73.4478 94.516 71.7343 94.7617 69.4408Z" fill="#FFD550"/>
<path d="M88.0784 75.859L78.9766 74.3476L78.5465 82.3548L78.4398 84.3143C82.205 85.8199 86.2243 84.5282 88.1569 83.2862C89.3145 82.5407 89.252 81.7741 89.252 81.7741C88.3041 80.4093 88.0784 75.859 88.0784 75.859Z" fill="#FC9FC9"/>
<path d="M88.4331 78.4938C88.2405 77.114 88.1747 75.8696 88.1747 75.8696L79.0493 74.3539C79.0493 74.3539 81.1076 79.0164 88.4331 78.4938Z" fill="#300E87"/>
<path d="M87.4415 76.673C92.0167 75.3732 94.3732 70.4589 92.7049 65.6967C91.0366 60.9344 85.9752 58.1276 81.4001 59.4274C76.8249 60.7272 74.4684 65.6415 76.1367 70.4037C77.805 75.166 82.8664 77.9728 87.4415 76.673Z" fill="#FC9FC9"/>
<path d="M75.6058 67.6226C75.7062 63.7857 77.8215 60.5216 81.2836 59.5374C85.9494 58.211 91.2673 61.5308 93.1653 66.9519C93.2657 67.2385 93.3653 67.5231 93.4343 67.8163L93.8613 67.8196C93.7396 67.1285 93.5608 66.4454 93.3266 65.7769C91.2294 59.7868 85.223 56.157 79.9007 57.67C75.6726 58.872 73.1684 61.3481 74.0146 67.6139L75.6058 67.6226Z" fill="#FFD550"/>
<path d="M94.1797 57.8311C93.3 55.3194 90.432 53.8963 87.7786 54.6503C87.3046 54.7855 86.856 54.9857 86.4464 55.245V55.245C85.0147 54.5578 83.4153 54.313 81.8756 54.5454C78.8197 55.0286 75.1834 57.4569 75.3792 63.5189C75.5226 64.6167 75.8203 65.6975 76.264 66.7313C76.264 66.7313 78.6942 67.316 79.9199 64.7226C81.1155 62.1941 82.8968 61.5986 84.1236 62.0344C85.7739 62.6292 87.1686 64.4569 90.9565 63.7445C91.1372 63.7313 91.31 63.6766 91.4605 63.5848C92.4134 64.793 93.0666 66.1877 93.3668 67.6553C95.0339 64.7369 94.5689 62.0369 93.9998 61.2287C94.5096 60.1801 94.574 58.9645 94.1797 57.8311V57.8311Z" fill="#300E87"/>
<path d="M79.0236 68.9992C80.0894 71.5596 79.7927 74.0384 78.3634 74.5338C76.9341 75.0291 74.4456 73.2342 73.4222 70.6594C72.2456 67.7005 73.0749 65.7604 74.5048 65.2603C75.9348 64.7601 77.9578 66.4388 79.0236 68.9992Z" fill="#FFB444"/>
<path d="M77.3146 73.9041C78.5492 73.475 78.8023 71.3352 77.8798 69.1247C76.9573 66.9142 75.2085 65.47 73.9739 65.8991C72.7392 66.3282 72.4862 68.468 73.4087 70.6785C74.3312 72.889 76.0799 74.3331 77.3146 73.9041Z" fill="#FFD550"/>
<path d="M86.1794 67.5268C86.1819 66.8815 85.8807 66.3449 85.5067 66.3282C85.1327 66.3115 84.8274 66.8211 84.8249 67.4663C84.8224 68.1115 85.1235 68.6481 85.4976 68.6648C85.8716 68.6815 86.1768 68.172 86.1794 67.5268Z" fill="#300E87"/>
<path d="M91.644 67.2965C91.6476 66.6477 91.3457 66.1076 90.9696 66.0903C90.5935 66.073 90.2857 66.585 90.282 67.2339C90.2784 67.8828 90.5803 68.4228 90.9564 68.4401C91.3325 68.4574 91.6403 67.9454 91.644 67.2965Z" fill="#300E87"/>
<path d="M82.2963 71.3902C82.0806 72.0629 82.9718 73.3872 84.6123 73.019" stroke="#300E87" stroke-width="1.34399" stroke-miterlimit="10" stroke-linecap="round"/>
<path d="M88.342 68.1195L88.6223 70.6405C88.6302 70.7133 88.6226 70.7862 88.5999 70.8546C88.5772 70.923 88.54 70.9855 88.4904 71.0383C88.4408 71.091 88.3801 71.1328 88.3118 71.1611C88.2436 71.1894 88.1694 71.2035 88.0939 71.2027L87.4734 71.1955" stroke="#300E87" stroke-width="1.34399" stroke-miterlimit="10" stroke-linecap="round"/>
</svg>
