<svg width="172" height="182" viewBox="0 0 172 182" fill="none" xmlns="http://www.w3.org/2000/svg">
<path d="M55.4204 70.4878L23.4759 76.3058C23.0329 76.3544 22.5869 76.322 22.1634 76.2103C21.7399 76.0987 21.3472 75.9101 21.0078 75.6553C20.6683 75.4005 20.3888 75.0845 20.1853 74.7254C19.9817 74.3663 19.8581 73.9712 19.8215 73.5626L17.5554 48.296C17.4811 47.4709 17.7652 46.6411 18.3451 45.9891C18.9251 45.3371 19.7534 44.9162 20.6481 44.8191L52.8493 43.0234C53.9949 42.9595 55.1086 43.3032 55.9618 43.9839C56.8151 44.6647 57.3432 45.6308 57.4379 46.6841L59.1687 65.9394C59.2603 66.9756 58.9255 68.0189 58.2309 68.8618C57.5363 69.7046 56.5328 70.2852 55.4204 70.4878V70.4878Z" stroke="#B3C2FF" stroke-width="1.37431" stroke-miterlimit="10" stroke-linecap="round"/>
<path d="M58.6083 126.932C55.5665 119.801 50.452 105.069 51.0558 87.6599" stroke="#B3C2FF" stroke-width="1.37431" stroke-miterlimit="10" stroke-linecap="round"/>
<path d="M116.384 127.346C118.807 122.627 121.118 117.116 122.109 111.815" stroke="#B3C2FF" stroke-width="1.37431" stroke-miterlimit="10" stroke-linecap="round"/>
<path d="M122.116 130.754C122.116 130.754 124.218 122.834 130.348 117.907L135.844 122.91C135.844 122.91 127.272 124.006 122.116 130.754Z" fill="#FFD550"/>
<path d="M135.654 136.774C145.829 138.435 152.348 146.732 150.422 155.176C148.497 163.619 138.798 169.267 128.623 167.605C118.449 165.943 111.93 157.647 113.855 149.203C115.781 140.76 125.48 135.112 135.654 136.774Z" stroke="#B3C2FF"/>
<path d="M132.043 96.2715C132.043 96.2715 135.851 96.8714 137.907 95.1658C138.96 94.2943 141.502 92.4865 144.517 91.6044C147.532 90.7222 143.741 95.124 143.796 95.5167C143.865 96.0415 149.601 93.2543 150.244 94.3761C150.886 95.498 151.326 98.4125 147.358 100.9C143.389 103.387 131.626 106.369 128.56 105.726C125.494 105.082 127.694 98.568 132.043 96.2715Z" fill="#FC9FC9"/>
<path d="M143.234 95.8449L140.855 97.4732" stroke="#0E2687" stroke-width="0.916209" stroke-miterlimit="10" stroke-linecap="round"/>
<path d="M53.9439 65.3206C53.9439 65.3206 53.3565 63.6767 53.6363 60.789C53.9059 58.0389 53.9119 52.8206 52.1123 52.6417C51.2609 52.5571 49.355 53.0701 48.8018 57.983C48.8018 57.983 48.1162 59.9298 44.9336 55.8633C41.7509 51.7968 40.2571 51.8884 39.0463 52.5586C36.8997 53.7501 33.2172 56.9956 35.1365 62.4339C37.0557 67.8722 45.3913 72.9222 45.3913 72.9222L53.9439 65.3206Z" fill="#FC9FC9"/>
<path d="M38.8583 53.4951C38.8583 53.4951 41.1931 56.8705 42.6547 57.843" stroke="#0E2687" stroke-width="0.916209" stroke-miterlimit="10" stroke-linecap="round"/>
<path d="M37.4315 55.2966C37.4315 55.2966 39.764 58.6718 41.228 59.6444" stroke="#0E2687" stroke-width="0.916209" stroke-miterlimit="10" stroke-linecap="round"/>
<path d="M36.1005 57.485C36.1005 57.485 38.4335 60.8557 39.8969 61.8328" stroke="#0E2687" stroke-width="0.916209" stroke-miterlimit="10" stroke-linecap="round"/>
<path d="M35.6999 60.4371C36.4336 61.4875 37.2271 62.501 38.0771 63.4735" stroke="#0E2687" stroke-width="0.916209" stroke-miterlimit="10" stroke-linecap="round"/>
<path d="M51.1794 138.45L79.5512 123.844C80.4258 123.394 81.3909 123.126 82.3769 123.059C83.3628 122.993 84.3449 123.13 85.2524 123.46L123.922 137.492C124.59 137.733 125.171 138.134 125.608 138.656C126.046 139.178 126.323 139.802 126.414 140.465C126.504 141.129 126.404 141.808 126.124 142.436C125.843 143.064 125.392 143.618 124.815 144.044L87.3802 171.764C86.1351 172.689 84.5791 173.163 83.0142 173.095C81.4493 173.027 79.9872 172.422 78.9117 171.397L50.1789 143.902C49.7866 143.525 49.4967 143.066 49.3319 142.562C49.167 142.057 49.1316 141.52 49.2285 140.992C49.3253 140.464 49.5518 139.96 49.8902 139.519C50.2286 139.079 50.6698 138.713 51.1794 138.45Z" fill="#0E2687"/>
<path d="M127.085 138.125L126.555 142.933L123.78 144.688L127.085 138.125Z" fill="#0E2687"/>
<path d="M49.1036 137.478L48.569 141.097L52.1856 143.367L49.1036 137.478Z" fill="#0E2687"/>
<path d="M51.58 135.355L79.9521 120.746C80.8268 120.296 81.7919 120.028 82.7778 119.961C83.7638 119.895 84.7459 120.032 85.6534 120.362L124.323 134.394C124.991 134.635 125.572 135.037 126.009 135.559C126.447 136.08 126.724 136.704 126.815 137.368C126.905 138.031 126.805 138.711 126.525 139.339C126.244 139.966 125.793 140.521 125.216 140.946L87.7812 168.667C86.5348 169.589 84.9783 170.062 83.4137 169.992C81.8492 169.922 80.3882 169.315 79.3143 168.288L50.5798 140.804C50.188 140.427 49.8985 139.969 49.7338 139.464C49.5692 138.96 49.534 138.423 49.6308 137.896C49.7276 137.368 49.9538 136.864 50.2919 136.424C50.63 135.983 51.0708 135.617 51.58 135.355Z" fill="#4A4A4A"/>
<path d="M118.824 141.518L105.497 151.377L105.334 149.817C105.101 147.298 104.395 139.302 103.981 130.969L118.075 136.074C118.631 136.273 119.115 136.607 119.479 137.04C119.844 137.473 120.075 137.991 120.151 138.543C120.227 139.094 120.144 139.659 119.912 140.181C119.679 140.703 119.304 141.164 118.824 141.518Z" fill="#B3C2FF"/>
<path d="M69.5896 152.939L70.1522 154.215L55.8372 140.521C55.512 140.208 55.2718 139.828 55.1353 139.409C54.9987 138.991 54.9696 138.545 55.0502 138.108C55.1307 137.67 55.3187 137.253 55.5996 136.887C55.8804 136.522 56.2465 136.219 56.6692 136.002L64.9394 131.745C65.6248 138.975 67.1846 146.084 69.5896 152.939Z" fill="#B3C2FF"/>
<path d="M103.092 39.946C103.092 39.946 110.542 39.5387 110.146 52.1606C109.842 61.8463 110.612 63.4356 110.787 64.3591C110.962 65.2826 116.503 72.735 113.628 79.6423C113.628 79.6423 109.435 88.4134 100.188 89.0302C90.9413 89.647 92.7812 69.1144 92.7812 69.1144C92.7812 69.1144 95.3133 42.5545 103.092 39.946Z" fill="#4A4A4A"/>
<path d="M39.5813 118.938C44.0256 119.364 48.1245 116.362 48.7365 112.232C49.3485 108.103 46.2419 104.41 41.7976 103.984C37.3534 103.558 33.2545 106.56 32.6424 110.689C32.0304 114.819 35.1371 118.512 39.5813 118.938Z" fill="#4A4A4A"/>
<path d="M43.5778 111.579L39.933 114.99C39.8717 115.049 39.7946 115.091 39.7103 115.113C39.626 115.135 39.5376 115.135 39.4549 115.113C39.3721 115.092 39.2981 115.049 39.241 114.99C39.1839 114.932 39.1459 114.859 39.1311 114.78L38.1014 109.634C38.0851 109.556 38.0924 109.474 38.1227 109.398C38.1529 109.322 38.205 109.254 38.2731 109.202C38.3412 109.15 38.4227 109.116 38.5089 109.104C38.595 109.091 38.6824 109.101 38.7615 109.131L43.4349 110.858C43.5083 110.883 43.5731 110.926 43.6231 110.982C43.6731 111.037 43.7067 111.104 43.721 111.176C43.7352 111.248 43.7296 111.322 43.7046 111.393C43.6796 111.463 43.636 111.527 43.5778 111.579Z" fill="#FAF8F8"/>
<path d="M105.002 150.988L87.2179 164.028C86.1825 164.787 84.8859 165.172 83.5799 165.109C82.274 165.045 81.0519 164.537 80.1508 163.683L70.5162 154.56L69.9424 153.285C67.481 146.437 65.8684 139.34 65.1346 132.125C63.5938 117.591 65.7313 106.792 65.7313 106.792L103.47 110.595C102.731 114.737 102.909 122.847 103.355 130.645C103.822 138.951 104.58 146.922 104.829 149.432L105.002 150.988Z" fill="#0E2687"/>
<path d="M78.27 123.991L81.443 125.512C81.443 125.512 80.1449 135.36 88.8783 161.821" stroke="#D7D3D3" stroke-width="0.916209" stroke-miterlimit="10" stroke-linecap="round"/>
<path d="M89.5429 63.3531C89.5429 63.3531 79.2616 62.8711 74.4889 69.3129C68.6408 77.1633 63.1918 75.5956 56.6097 66.2327C56.3668 65.8859 55.9968 65.6317 55.5645 65.5148C55.1323 65.3979 54.6654 65.4258 54.246 65.5935C51.1316 66.8368 44.5636 70.0953 46.7452 74.6996C49.5743 80.6665 58.8815 93.4762 68.3325 93.738C68.3325 93.738 65.258 103.333 64.7759 107.444C64.7759 107.444 69.5719 114.721 83.9451 115.859C98.3183 116.997 102.852 111.283 102.852 111.283C102.852 111.283 104.444 101.267 105.289 98.7106C105.289 98.7106 113.79 106.15 127.999 105.205C127.999 105.205 126.991 99.129 131.488 95.7221C131.488 95.7221 118.277 90.8676 117.043 88.7786C115.808 86.6896 113.186 75.4773 112.591 73.7804C111.814 71.5572 109.129 67.6928 103.236 65.3753C97.3429 63.0578 89.5429 63.3531 89.5429 63.3531Z" fill="#E75094"/>
<path d="M76.1037 70.9949C76.1037 70.9949 71.9308 78.8924 68.574 92.0269" stroke="#D7D3D3" stroke-width="0.916209" stroke-miterlimit="10" stroke-linecap="round"/>
<path d="M98.2895 78.622C98.2895 78.622 99.7896 87.2109 100.997 92.235C101.39 93.8698 101.752 95.1272 102.022 95.5885C103.119 97.4674 105.296 98.7822 105.296 98.7822" stroke="#FAF8F8" stroke-width="0.916209" stroke-miterlimit="10" stroke-linecap="round"/>
<path d="M129.454 95.2299C129.454 95.2299 125.245 96.7468 125.862 104.594" stroke="#FAF8F8" stroke-width="0.916209" stroke-miterlimit="10" stroke-linecap="round"/>
<path d="M56.8818 67.3746C56.8818 67.3746 51.4739 69.1938 48.4045 73.2312" stroke="#FAF8F8" stroke-width="0.916209" stroke-miterlimit="10" stroke-linecap="round"/>
<path d="M89.4475 40.8272C89.4475 40.8272 84.8323 42.2493 86.9405 49.0951L91.7124 43.1398L89.4475 40.8272Z" fill="#4A4A4A"/>
<path d="M102.165 55.0094C102.165 55.0094 98.3523 65.3907 98.2251 66.2509C98.0979 67.1111 91.733 67.8778 88.6616 64.8903C88.6616 64.8903 92.2642 58.2106 92.9753 56.5208C93.6864 54.831 99.1336 53.4062 102.165 55.0094Z" fill="#FC9FC9"/>
<path d="M102.174 55.0326L92.0461 58.3739C91.5692 59.3161 90.9868 60.4372 90.4233 61.4957C90.4233 61.4957 98.6192 63.5316 102.174 55.0326Z" fill="#0E2687"/>
<path d="M103.801 51.1268C103.131 55.6611 98.6662 60.209 94.0528 59.7659C88.438 59.2265 85.8088 55.8381 87.0952 49.522C88.01 45.042 92.0499 41.6754 96.6633 42.1186C101.277 42.5617 104.472 46.5946 103.801 51.1268Z" fill="#FC9FC9"/>
<path d="M99.7838 51.1177C94.7275 51.0869 88.6596 46.8685 89.5557 40.9897C90.4518 35.1109 96.2889 35.4496 97.1673 35.534C98.0456 35.6183 105.561 37.4314 106.859 44.7831C108.157 52.1347 101.903 51.1304 99.7838 51.1177Z" fill="#4A4A4A"/>
<path d="M104.072 54.7711C106.018 54.0158 107.202 52.5671 106.717 51.5352C106.232 50.5034 104.261 50.2792 102.315 51.0345C100.369 51.7898 99.1851 53.2385 99.6703 54.2704C100.155 55.3022 102.126 55.5264 104.072 54.7711Z" fill="#FC9FC9"/>
<path d="M94.5014 56.5661C94.5014 56.5661 96.4135 56.9861 97.4419 55.4725" stroke="#0E2687" stroke-width="0.916209" stroke-miterlimit="10" stroke-linecap="round"/>
<path d="M102.426 53.2169L105.239 52.3995" stroke="#0E2687" stroke-width="0.916209" stroke-miterlimit="10" stroke-linecap="round"/>
<path d="M91.4523 50.8299L90.6155 52.9035C90.5913 52.9637 90.5804 53.0275 90.5834 53.091C90.5865 53.1544 90.6036 53.2162 90.6334 53.2723C90.6633 53.3284 90.7054 53.3778 90.7571 53.4172C90.8088 53.4566 90.869 53.4853 90.9338 53.5014L91.4631 53.6362" stroke="#0E2687" stroke-width="0.916209" stroke-miterlimit="10" stroke-linecap="round"/>
<path d="M89.9864 49.6744C90.1575 49.0663 90.023 48.5159 89.6859 48.445C89.3487 48.3741 88.9366 48.8097 88.7654 49.4178C88.5943 50.0259 88.7288 50.5763 89.066 50.6472C89.4031 50.7181 89.8152 50.2826 89.9864 49.6744Z" fill="#0E2687"/>
<path d="M94.8225 50.979C94.9937 50.3709 94.8592 49.8204 94.522 49.7495C94.1849 49.6787 93.7728 50.1142 93.6016 50.7223C93.4305 51.3304 93.565 51.8809 93.9021 51.9518C94.2393 52.0226 94.6514 51.5871 94.8225 50.979Z" fill="#0E2687"/>
<path d="M80.0916 14.2206C79.8861 12.6774 79.246 11.2229 78.2349 10.0018C77.2239 8.78074 75.8771 7.83562 74.3286 7.2605C72.78 6.68538 71.0838 6.50031 69.4086 6.72371C67.7334 6.94711 66.1377 7.5712 64.7802 8.53386C63.4227 9.49653 62.3507 10.7642 61.671 12.2108C60.9913 13.6574 60.7275 15.2324 60.9058 16.7792C61.0842 18.3259 61.6985 19.7905 62.6876 21.0272C63.6767 22.2638 65.0062 23.2295 66.5437 23.828C66.8904 23.9657 67.1903 24.1849 67.4143 24.4645C67.6383 24.7442 67.7789 25.0747 67.8225 25.4242L67.9682 26.4597C68.032 26.935 68.1966 27.3912 68.4528 27.8023C68.709 28.2134 69.0516 28.5713 69.4612 28.8556C69.8708 29.1399 70.3393 29.3451 70.8399 29.4593C71.3405 29.5736 71.8635 29.5947 72.3789 29.5214C72.8943 29.4484 73.3922 29.2824 73.844 29.033C74.2958 28.7836 74.6926 28.4556 75.012 28.0678C75.3313 27.68 75.5668 27.2401 75.7051 26.773C75.8433 26.3059 75.8816 25.8209 75.8177 25.3457L75.6711 24.3189C75.6222 23.9724 75.6704 23.6175 75.811 23.288C75.9515 22.9584 76.1799 22.6652 76.4742 22.4362C77.7823 21.451 78.8028 20.1767 79.4366 18.7372C80.0705 17.2976 80.2961 15.7417 80.0916 14.2206Z" fill="#FFD550"/>
<path d="M70.0846 24.517L75.9137 23.6635" stroke="#E75094" stroke-width="2.29052" stroke-miterlimit="10" stroke-linecap="round"/>
<path d="M72.0505 8.68454C72.0505 8.68454 76.0148 9.43504 76.889 12.76" stroke="#FAF8F8" stroke-width="1.83242" stroke-miterlimit="10" stroke-linecap="round"/>
<path d="M59.8873 9.24664C59.8873 9.24664 56.5449 12.411 57.8082 17.4938" stroke="#E75094" stroke-width="2.29052" stroke-miterlimit="10" stroke-linecap="round"/>
<path d="M56.9096 6.7832C56.9096 6.7832 51.994 11.4422 53.8475 18.9264" stroke="#E75094" stroke-width="2.29052" stroke-miterlimit="10" stroke-linecap="round"/>
</svg>
